<?xml version="1.0" standalone="no"?>
<!DOCTYPE svg PUBLIC "-//W3C//DTD SVG 20010904//EN"
 "http://www.w3.org/TR/2001/REC-SVG-20010904/DTD/svg10.dtd">
<svg version="1.0" xmlns="http://www.w3.org/2000/svg"
 width="300.000000pt" height="300.000000pt" viewBox="0 0 300.000000 300.000000"
 preserveAspectRatio="xMidYMid meet">
<metadata>
Created by potrace 1.10, written by Peter Selinger 2001-2011
</metadata>
<g transform="translate(0.000000,300.000000) scale(0.100000,-0.100000)"
fill="#000000" stroke="none">
<path d="M1310 2545 c-417 -79 -750 -398 -847 -811 -25 -110 -25 -358 0 -468
94 -398 405 -709 803 -803 120 -28 367 -25 491 6 125 31 305 121 410 206 181
146 315 360 370 592 25 109 25 357 0 467 -92 390 -396 701 -782 797 -106 27
-339 34 -445 14z m442 -39 c107 -27 236 -84 325 -143 76 -50 194 -162 255
-243 68 -89 143 -245 175 -365 23 -88 26 -119 26 -255 0 -135 -3 -168 -26
-252 -51 -193 -149 -360 -290 -495 -136 -130 -282 -211 -465 -260 -84 -23
-117 -26 -252 -26 -135 0 -168 3 -252 26 -374 99 -656 381 -755 755 -23 84
-26 117 -26 252 0 136 3 167 26 255 32 120 107 276 175 365 61 81 179 193 255
243 121 80 284 143 433 167 99 15 286 4 396 -24z"/>
<path d="M1499 2214 c-17 -5 -29 -66 -29 -146 0 -36 1 -38 34 -38 28 0 36 -5
47 -31 12 -29 13 -30 20 -11 6 17 16 20 53 19 25 -1 51 4 57 10 19 19 25 181
8 187 -22 7 -172 15 -190 10z m131 -21 l63 -6 -6 -79 c-3 -44 -8 -82 -11 -85
-3 -4 -28 -5 -56 -4 -34 1 -50 -3 -50 -11 0 -7 -7 -2 -16 10 -10 15 -25 22
-46 22 l-31 0 7 53 c3 28 6 64 6 80 0 25 3 27 39 27 21 0 66 -3 101 -7z"/>
<path d="M1546 2137 c-3 -17 -15 -37 -27 -45 -16 -11 -18 -17 -8 -28 15 -18
23 -10 39 39 10 33 15 37 41 35 26 -2 29 -6 27 -28 -2 -17 -8 -24 -20 -22 -22
3 -31 -13 -14 -27 23 -19 43 -2 49 41 8 56 2 65 -43 65 -34 0 -39 -3 -44 -30z"/>
<path d="M1353 2038 c7 -19 -8 -25 -18 -8 -3 6 -13 10 -21 10 -13 0 -13 -3 0
-22 21 -29 20 -35 -3 -41 -11 -2 -36 -28 -56 -56 -29 -41 -43 -51 -65 -51 -28
0 -60 22 -60 41 0 5 -5 9 -11 9 -18 0 -2 -79 26 -126 32 -54 103 -119 149
-134 30 -9 37 -16 33 -31 -3 -10 -1 -22 4 -25 5 -3 9 3 9 14 0 23 8 32 25 26
7 -3 11 -14 8 -25 -3 -10 0 -19 6 -19 6 0 11 9 11 20 0 15 7 20 25 20 78 0
145 83 145 180 0 27 6 41 22 52 26 17 17 38 -17 38 -21 0 -49 21 -132 100 -20
20 -33 26 -36 18 -3 -9 -11 -7 -27 7 -20 17 -23 18 -17 3z m65 -45 c7 -7 22
-19 33 -27 18 -12 19 -17 9 -36 -6 -12 -9 -33 -6 -46 8 -32 42 -32 50 0 5 22
8 23 31 13 17 -8 23 -17 19 -27 -4 -8 -10 -37 -13 -65 -8 -57 -19 -81 -53
-111 -31 -28 -105 -49 -122 -35 -7 6 -15 9 -18 6 -11 -12 -96 37 -134 77 -35
36 -74 95 -74 112 0 2 18 2 39 -1 33 -5 43 -1 63 21 12 15 42 47 66 72 23 25
42 50 42 55 0 14 51 7 68 -8z m70 -97 c3 -12 -1 -17 -10 -14 -7 3 -15 13 -16
22 -3 12 1 17 10 14 7 -3 15 -13 16 -22z"/>
<path d="M1650 1885 c0 -43 1 -45 29 -45 17 0 32 -4 36 -10 13 -20 45 24 45
62 l0 38 -55 0 -55 0 0 -45z m100 1 c0 -37 -12 -45 -62 -38 -24 4 -28 9 -28
38 0 34 1 34 45 34 45 0 45 0 45 -34z"/>
<path d="M1683 1885 c-7 -16 -7 -25 -1 -25 5 0 12 9 15 20 3 11 10 20 15 20 5
0 6 -10 3 -21 -5 -15 -4 -19 4 -15 6 4 11 16 11 27 0 28 -33 24 -47 -6z"/>
<path d="M1727 1792 c-31 -16 -45 -28 -39 -36 5 -6 9 -24 10 -40 2 -32 27 -66
49 -66 7 0 13 -4 13 -10 0 -14 28 -12 47 3 52 41 83 78 83 98 0 18 -3 20 -12
11 -7 -7 -17 -12 -23 -12 -11 0 -32 34 -33 54 0 11 -24 26 -37 24 -5 0 -31
-12 -58 -26z m92 -28 c17 -25 30 -34 43 -31 28 8 22 -8 -17 -42 -24 -21 -46
-31 -68 -31 -45 0 -59 12 -66 56 -6 35 -4 41 23 62 41 30 57 28 85 -14z"/>
<path d="M1736 1771 c-4 -7 -5 -15 -2 -18 9 -9 19 4 14 18 -4 11 -6 11 -12 0z"/>
<path d="M938 1240 c-29 -30 -34 -60 -10 -68 7 -2 12 6 12 21 0 21 27 57 43
57 3 0 0 -15 -8 -34 -46 -109 -63 -166 -52 -166 7 0 21 26 32 58 26 81 34 83
28 8 -5 -61 -4 -66 14 -66 16 0 26 14 44 58 32 79 49 110 49 91 0 -9 -3 -19
-7 -23 -5 -4 -13 -34 -19 -67 -10 -57 -10 -59 11 -59 19 0 22 9 34 93 7 50 15
100 17 110 4 13 -1 17 -18 17 -20 0 -28 -11 -52 -75 -16 -41 -31 -75 -34 -75
-3 0 -2 34 1 75 l7 75 -31 0 c-21 0 -40 -10 -61 -30z m59 -42 c-3 -8 -6 -5 -6
6 -1 11 2 17 5 13 3 -3 4 -12 1 -19z m23 -92 c0 -3 -4 -8 -10 -11 -5 -3 -10
-1 -10 4 0 6 5 11 10 11 6 0 10 -2 10 -4z"/>
<path d="M1453 1244 c-8 -22 18 -37 36 -20 7 8 10 19 7 25 -10 16 -36 13 -43
-5z"/>
<path d="M1548 1098 c-13 -62 -23 -115 -22 -116 1 -2 11 -1 22 2 13 4 22 19
26 40 5 28 10 32 30 29 32 -6 63 25 72 73 8 46 -5 69 -40 69 -14 -1 -26 3 -26
7 0 4 -8 8 -19 8 -15 0 -22 -18 -43 -112z m92 49 c0 -34 -23 -77 -42 -77 -7 0
-8 16 -3 48 8 55 11 62 31 62 9 0 14 -11 14 -33z"/>
<path d="M1964 1202 c-7 -4 -22 -29 -34 -55 -13 -27 -34 -56 -47 -64 -22 -15
-26 -15 -41 0 -8 9 -14 18 -11 19 2 2 18 10 34 18 23 12 31 24 33 48 3 32 2
33 -29 30 -36 -3 -65 -36 -75 -84 -10 -53 46 -85 86 -49 15 14 18 14 30 0 16
-20 44 -19 76 2 25 16 27 16 36 0 10 -19 40 -22 69 -7 16 9 19 22 19 81 0 61
-2 70 -16 65 -9 -3 -19 -6 -23 -6 -5 0 -16 -20 -25 -44 -9 -25 -24 -50 -32
-56 -12 -11 -14 -4 -14 49 0 61 -8 72 -36 53z m-103 -65 c-27 -27 -29 -3 -4
33 16 23 18 23 21 6 2 -10 -5 -28 -17 -39z m90 -60 c-5 -5 -18 -7 -28 -3 -17
7 -17 8 0 17 9 6 15 14 12 19 -3 5 0 21 7 37 l13 28 3 -44 c2 -24 -1 -48 -7
-54z m119 48 c0 -32 -5 -47 -15 -52 -22 -8 -30 4 -15 22 7 8 10 15 7 15 -3 0
-1 14 4 30 15 41 19 38 19 -15z"/>
<path d="M1149 1174 c-49 -52 -21 -149 33 -115 16 10 23 10 26 2 5 -15 35 -14
50 1 9 9 12 9 12 0 0 -7 8 -12 18 -12 13 0 22 14 32 57 21 79 44 85 35 9 -6
-48 -5 -57 10 -62 10 -4 26 -2 36 5 15 8 24 8 39 -1 16 -11 23 -10 37 5 16 16
16 17 0 17 -18 0 -18 4 3 88 8 29 6 32 -15 32 -20 0 -24 -7 -30 -47 -13 -89
-46 -101 -43 -15 l3 57 -50 0 c-42 0 -50 -3 -53 -20 -11 -62 -24 -95 -38 -95
-12 0 -15 6 -11 23 3 12 9 39 12 59 l7 36 -45 0 c-35 0 -50 -5 -68 -24z m65
-21 c-13 -54 -24 -73 -40 -73 -13 0 -16 7 -11 36 7 40 23 64 43 64 11 0 13 -7
8 -27z"/>
<path d="M1706 1187 c-7 -23 -26 -118 -26 -128 0 -5 8 -9 19 -9 15 0 21 12 30
59 7 34 18 61 26 65 8 3 15 1 15 -4 0 -6 7 -10 16 -10 9 0 14 7 12 17 -4 21
-87 30 -92 10z"/>
</g>
</svg>
